HIERARCHY
ROOT newVegas:Hips
{
	OFFSET 0.000000 96.479958 0.000000
	CHANNELS 6 Xposition Yposition Zposition Xrotation Yrotation Zrotation
	JOINT newVegas:Pelvis
	{
		OFFSET 0.000000 0.000000 0.000000
		CHANNELS 3 Xrotation Yrotation Zrotation
		JOINT newVegas:LeftUpLeg
		{
			OFFSET 18.735201 -5.666702 -4.541200
			CHANNELS 3 Xrotation Yrotation Zrotation
			JOINT newVegas:LeftLeg
			{
				OFFSET -0.021200 -31.938179 0.493100
				CHANNELS 3 Xrotation Yrotation Zrotation
				JOINT newVegas:LeftFoot
				{
					OFFSET 0.021200 -31.938179 -4.336299
					CHANNELS 3 Xrotation Yrotation Zrotation
					JOINT newVegas:LeftToeBase
					{
						OFFSET 0.943001 -26.722000 15.023500
						CHANNELS 3 Xrotation Yrotation Zrotation
						End Site
						{
							OFFSET 0.000000 30.670183 0.000000
						}
					}
				}
				JOINT newVegas:Left_PantLeg
				{
					OFFSET 0.663870 -9.044666 -1.108900
					CHANNELS 3 Xrotation Yrotation Zrotation
					End Site
					{
						OFFSET 1.415995 20.635357 0.000000
					}
				}
			}
		}
		JOINT newVegas:RightUpLeg
		{
			OFFSET -18.735201 -5.666702 -4.541200
			CHANNELS 3 Xrotation Yrotation Zrotation
			JOINT newVegas:RightLeg
			{
				OFFSET 0.018946 -31.938133 0.493100
				CHANNELS 3 Xrotation Yrotation Zrotation
				JOINT newVegas:RightFoot
				{
					OFFSET -0.018946 -31.938126 -4.336299
					CHANNELS 3 Xrotation Yrotation Zrotation
					JOINT newVegas:RightToeBase
					{
						OFFSET -0.943001 -26.722004 15.023500
						CHANNELS 3 Xrotation Yrotation Zrotation
						End Site
						{
							OFFSET 0.000000 30.670187 0.000000
						}
					}
				}
				JOINT newVegas:Right_PantLeg
				{
					OFFSET -0.661674 -9.044716 -1.108900
					CHANNELS 3 Xrotation Yrotation Zrotation
					End Site
					{
						OFFSET -1.415958 20.635269 0.000000
					}
				}
			}
		}
	}
	JOINT newVegas:Spine
	{
		OFFSET 0.000000 10.199997 -0.299500
		CHANNELS 3 Xrotation Yrotation Zrotation
		JOINT newVegas:Spine1
		{
			OFFSET 0.000000 11.900002 -1.516600
			CHANNELS 3 Xrotation Yrotation Zrotation
			JOINT newVegas:Spine2
			{
				OFFSET 0.000000 13.600006 -2.842500
				CHANNELS 3 Xrotation Yrotation Zrotation
				JOINT newVegas:Neck
				{
					OFFSET 0.000000 9.624100 -2.890100
					CHANNELS 3 Xrotation Yrotation Zrotation
					JOINT newVegas:Head
					{
						OFFSET 0.000000 14.068802 -1.351900
						CHANNELS 3 Xrotation Yrotation Zrotation
						JOINT newVegas:Hair_Back
						{
							OFFSET 0.000000 3.231903 -17.524799
							CHANNELS 3 Xrotation Yrotation Zrotation
							End Site
							{
								OFFSET 0.000000 19.849884 0.000000
							}
						}
						JOINT newVegas:Hair_Front
						{
							OFFSET 0.000000 31.260406 4.573800
							CHANNELS 3 Xrotation Yrotation Zrotation
							JOINT newVegas:Hair_Front1
							{
								OFFSET 0.000000 2.284103 11.993300
								CHANNELS 3 Xrotation Yrotation Zrotation
								JOINT newVegas:Hair_Front2
								{
									OFFSET 0.000000 2.284103 11.993300
									CHANNELS 3 Xrotation Yrotation Zrotation
									End Site
									{
										OFFSET 0.000000 12.208862 0.000000
									}
								}
							}
						}
						JOINT newVegas:Jowel
						{
							OFFSET 0.000000 -7.458206 6.864100
							CHANNELS 3 Xrotation Yrotation Zrotation
							End Site
							{
								OFFSET 0.000000 19.849884 0.000000
							}
						}
					}
				}
				JOINT newVegas:LeftShoulder
				{
					OFFSET 15.263000 10.923401 -0.547700
					CHANNELS 3 Xrotation Yrotation Zrotation
					JOINT newVegas:LeftArm
					{
						OFFSET 25.438599 -2.830597 -13.032500
						CHANNELS 3 Xrotation Yrotation Zrotation
						JOINT newVegas:LeftForeArm
						{
							OFFSET 29.960503 0.000000 0.000000
							CHANNELS 3 Xrotation Yrotation Zrotation
							JOINT newVegas:LeftHand
							{
								OFFSET 27.849251 0.000000 0.000000
								CHANNELS 3 Xrotation Yrotation Zrotation
								JOINT newVegas:LeftHandThumb1
								{
									OFFSET 4.487587 -3.305161 6.305391
									CHANNELS 3 Xrotation Yrotation Zrotation
									JOINT newVegas:LeftHandThumb2
									{
										OFFSET 5.480453 -3.164139 3.164143
										CHANNELS 3 Xrotation Yrotation Zrotation
										JOINT newVegas:LeftHandThumb3
										{
											OFFSET 5.159721 -2.978973 2.978967
											CHANNELS 3 Xrotation Yrotation Zrotation
											End Site
											{
												OFFSET 2.494507 5.926697 1.738678
											}
										}
									}
								}
								JOINT newVegas:LeftHandIndex1
								{
									OFFSET 18.578728 -0.527832 5.208049
									CHANNELS 3 Xrotation Yrotation Zrotation
									JOINT newVegas:LeftHandIndex2
									{
										OFFSET 3.192009 0.000000 0.000000
										CHANNELS 3 Xrotation Yrotation Zrotation
										JOINT newVegas:LeftHandIndex3
										{
											OFFSET 3.835129 0.000000 0.000000
											CHANNELS 3 Xrotation Yrotation Zrotation
											End Site
											{
												OFFSET -0.034599 3.816971 0.371180
											}
										}
									}
								}
								JOINT newVegas:LeftHandMiddle1
								{
									OFFSET 18.476105 0.000000 0.000000
									CHANNELS 3 Xrotation Yrotation Zrotation
									JOINT newVegas:LeftHandMiddle2
									{
										OFFSET 3.324875 0.000000 0.000000
										CHANNELS 3 Xrotation Yrotation Zrotation
										JOINT newVegas:LeftHandMiddle3
										{
											OFFSET 4.596550 0.000000 0.000000
											CHANNELS 3 Xrotation Yrotation Zrotation
											End Site
											{
												OFFSET 0.057701 4.578827 0.399218
											}
										}
									}
								}
								JOINT newVegas:LeftHandRing1
								{
									OFFSET 17.732719 0.121887 -4.201567
									CHANNELS 3 Xrotation Yrotation Zrotation
									JOINT newVegas:LeftHandRing2
									{
										OFFSET 2.733170 0.000000 0.000000
										CHANNELS 3 Xrotation Yrotation Zrotation
										JOINT newVegas:LeftHandRing3
										{
											OFFSET 3.178268 0.000000 0.000000
											CHANNELS 3 Xrotation Yrotation Zrotation
											End Site
											{
												OFFSET 0.119102 3.170624 0.185394
											}
										}
									}
								}
								JOINT newVegas:LeftHandPinky1
								{
									OFFSET 15.989624 -0.606689 -7.535461
									CHANNELS 3 Xrotation Yrotation Zrotation
									JOINT newVegas:LeftHandPinky2
									{
										OFFSET 2.538986 0.000000 0.000000
										CHANNELS 3 Xrotation Yrotation Zrotation
										JOINT newVegas:LeftHandPinky3
										{
											OFFSET 2.593102 0.000000 0.000000
											CHANNELS 3 Xrotation Yrotation Zrotation
											End Site
											{
												OFFSET -0.150902 2.584198 0.152708
											}
										}
									}
								}
							}
							JOINT newVegas:Left_Sleeve
							{
								OFFSET 0.267448 -0.649796 0.577675
								CHANNELS 3 Xrotation Yrotation Zrotation
								End Site
								{
									OFFSET 0.000000 15.991241 0.000000
								}
							}
							JOINT newVegas:Left_CapeC
							{
								OFFSET 15.715958 -8.608795 -6.935905
								CHANNELS 3 Xrotation Yrotation Zrotation
								JOINT newVegas:Left_CapeC1
								{
									OFFSET 0.000000 -8.688499 0.000000
									CHANNELS 3 Xrotation Yrotation Zrotation
									End Site
									{
										OFFSET 0.000000 8.688499 0.000000
									}
								}
							}
						}
						JOINT newVegas:Left_CapeB
						{
							OFFSET 26.118385 -8.608795 -7.079235
							CHANNELS 3 Xrotation Yrotation Zrotation
							JOINT newVegas:Left_CapeB1
							{
								OFFSET 0.000000 -8.688499 0.000000
								CHANNELS 3 Xrotation Yrotation Zrotation
								End Site
								{
									OFFSET 0.000000 8.688499 0.000000
								}
							}
						}
						JOINT newVegas:Left_CapeA
						{
							OFFSET 5.115639 -8.608795 -10.395809
							CHANNELS 3 Xrotation Yrotation Zrotation
							JOINT newVegas:Left_CapeA1
							{
								OFFSET 0.000000 -8.688499 0.000000
								CHANNELS 3 Xrotation Yrotation Zrotation
								End Site
								{
									OFFSET 0.000000 8.688499 0.000000
								}
							}
						}
					}
				}
				JOINT newVegas:RightShoulder
				{
					OFFSET -15.263000 10.923401 -0.547700
					CHANNELS 3 Xrotation Yrotation Zrotation
					JOINT newVegas:RightArm
					{
						OFFSET -25.438599 -2.830597 -13.032500
						CHANNELS 3 Xrotation Yrotation Zrotation
						JOINT newVegas:RightForeArm
						{
							OFFSET -29.960503 0.000000 0.000000
							CHANNELS 3 Xrotation Yrotation Zrotation
							JOINT newVegas:RightHand
							{
								OFFSET -27.849251 0.000000 0.000000
								CHANNELS 3 Xrotation Yrotation Zrotation
								JOINT newVegas:RightHandThumb1
								{
									OFFSET -4.487587 -3.305161 6.305391
									CHANNELS 3 Xrotation Yrotation Zrotation
									JOINT newVegas:RightHandThumb2
									{
										OFFSET -5.480453 -3.164139 3.164143
										CHANNELS 3 Xrotation Yrotation Zrotation
										JOINT newVegas:RightHandThumb3
										{
											OFFSET -5.159721 -2.978973 2.978967
											CHANNELS 3 Xrotation Yrotation Zrotation
											End Site
											{
												OFFSET -2.494507 5.926697 1.738678
											}
										}
									}
								}
								JOINT newVegas:RightHandIndex1
								{
									OFFSET -18.578728 -0.527832 5.208049
									CHANNELS 3 Xrotation Yrotation Zrotation
									JOINT newVegas:RightHandIndex2
									{
										OFFSET -3.192009 0.000000 0.000000
										CHANNELS 3 Xrotation Yrotation Zrotation
										JOINT newVegas:RightHandIndex3
										{
											OFFSET -3.835129 0.000000 0.000000
											CHANNELS 3 Xrotation Yrotation Zrotation
											End Site
											{
												OFFSET 0.034599 3.816971 0.371180
											}
										}
									}
								}
								JOINT newVegas:RightHandMiddle1
								{
									OFFSET -18.476105 0.000000 0.000000
									CHANNELS 3 Xrotation Yrotation Zrotation
									JOINT newVegas:RightHandMiddle2
									{
										OFFSET -3.324875 0.000000 0.000000
										CHANNELS 3 Xrotation Yrotation Zrotation
										JOINT newVegas:RightHandMiddle3
										{
											OFFSET -4.596550 0.000000 0.000000
											CHANNELS 3 Xrotation Yrotation Zrotation
											End Site
											{
												OFFSET -0.057701 4.578827 0.399218
											}
										}
									}
								}
								JOINT newVegas:RightHandRing1
								{
									OFFSET -17.732719 0.121887 -4.201567
									CHANNELS 3 Xrotation Yrotation Zrotation
									JOINT newVegas:RightHandRing2
									{
										OFFSET -2.733170 0.000000 0.000000
										CHANNELS 3 Xrotation Yrotation Zrotation
										JOINT newVegas:RightHandRing3
										{
											OFFSET -3.178268 0.000000 0.000000
											CHANNELS 3 Xrotation Yrotation Zrotation
											End Site
											{
												OFFSET -0.119102 3.170624 0.185394
											}
										}
									}
								}
								JOINT newVegas:RightHandPinky1
								{
									OFFSET -15.989624 -0.606689 -7.535461
									CHANNELS 3 Xrotation Yrotation Zrotation
									JOINT newVegas:RightHandPinky2
									{
										OFFSET -2.538986 0.000000 0.000000
										CHANNELS 3 Xrotation Yrotation Zrotation
										JOINT newVegas:RightHandPinky3
										{
											OFFSET -2.593102 0.000000 0.000000
											CHANNELS 3 Xrotation Yrotation Zrotation
											End Site
											{
												OFFSET 0.150902 2.584198 0.152708
											}
										}
									}
								}
							}
							JOINT newVegas:Right_CapeC
							{
								OFFSET -15.715958 -8.608795 -6.935905
								CHANNELS 3 Xrotation Yrotation Zrotation
								JOINT newVegas:Right_CapeC1
								{
									OFFSET 0.000000 -8.688499 0.000000
									CHANNELS 3 Xrotation Yrotation Zrotation
									End Site
									{
										OFFSET 0.000000 8.688499 0.000000
									}
								}
							}
							JOINT newVegas:Right_Sleeve
							{
								OFFSET -0.267448 -0.649994 0.577675
								CHANNELS 3 Xrotation Yrotation Zrotation
								End Site
								{
									OFFSET 0.000000 15.991302 0.000000
								}
							}
						}
						JOINT newVegas:Right_CapeA
						{
							OFFSET -5.115540 -8.608795 -10.395824
							CHANNELS 3 Xrotation Yrotation Zrotation
							JOINT newVegas:Right_CapeA1
							{
								OFFSET 0.000000 -8.688499 0.000000
								CHANNELS 3 Xrotation Yrotation Zrotation
								End Site
								{
									OFFSET 0.000000 8.688499 0.000000
								}
							}
						}
						JOINT newVegas:Right_CapeB
						{
							OFFSET -26.118187 -8.608795 -7.079266
							CHANNELS 3 Xrotation Yrotation Zrotation
							JOINT newVegas:Right_CapeB1
							{
								OFFSET 0.000000 -8.688499 0.000000
								CHANNELS 3 Xrotation Yrotation Zrotation
								End Site
								{
									OFFSET 0.000000 8.688499 0.000000
								}
							}
						}
					}
				}
				JOINT newVegas:Left_Collar
				{
					OFFSET 18.625099 8.655502 8.828100
					CHANNELS 3 Xrotation Yrotation Zrotation
					JOINT newVegas:Left_Collar1
					{
						OFFSET 14.783401 10.540405 -1.259500
						CHANNELS 3 Xrotation Yrotation Zrotation
						End Site
						{
							OFFSET 0.000000 18.199875 0.000000
						}
					}
				}
				JOINT newVegas:Collar_Back
				{
					OFFSET 0.000000 15.630707 -20.132601
					CHANNELS 3 Xrotation Yrotation Zrotation
					End Site
					{
						OFFSET 0.000000 22.523010 0.000000
					}
				}
				JOINT newVegas:Left_Peck
				{
					OFFSET 17.239599 -5.132599 25.482599
					CHANNELS 3 Xrotation Yrotation Zrotation
					End Site
					{
						OFFSET 0.000000 22.523010 0.000000
					}
				}
				JOINT newVegas:Right_Peck
				{
					OFFSET -17.239599 -5.132202 25.482599
					CHANNELS 3 Xrotation Yrotation Zrotation
					End Site
					{
						OFFSET 0.000000 22.523010 0.000000
					}
				}
				JOINT newVegas:Right_Collar
				{
					OFFSET -18.625099 8.655792 8.828100
					CHANNELS 3 Xrotation Yrotation Zrotation
					JOINT newVegas:Right_Collar1
					{
						OFFSET -14.783401 10.539993 -1.259500
						CHANNELS 3 Xrotation Yrotation Zrotation
						End Site
						{
							OFFSET 0.000000 18.199631 0.000000
						}
					}
				}
			}
		}
		JOINT newVegas:Belly
		{
			OFFSET 0.000000 -6.540398 9.014299
			CHANNELS 3 Xrotation Yrotation Zrotation
			End Site
			{
				OFFSET 0.000000 11.566666 0.000000
			}
		}
	}
	JOINT newVegas:ElvisFacialAnim_Joint
	{
		OFFSET 1.000000 -95.330101 -8.825800
		CHANNELS 3 Xrotation Yrotation Zrotation
		End Site
		{
			OFFSET 0.000000 35.315800 0.000000
		}
	}
}
MOTION
Frames: 4
Frame Time: 0.016667
-23.552168 130.372818 35.912678 2.234225 -20.009654 2.300659 0.000000 -0.000002 0.000000 -29.385868 9.243812 4.987894 39.040945 5.964096 4.294360 28.242854 -0.680479 -4.352725 0.000001 0.000000 -0.000000 -0.000001 -0.000000 0.000001 -4.322671 -6.793970 -4.571824 15.064288 -22.808256 3.374725 37.783701 -3.294797 -2.696449 0.000003 -0.000001 -0.000001 -0.000000 0.000004 -0.000002 -1.335773 -0.033433 -0.952623 -2.672069 -0.088748 -1.714353 -2.672071 -0.088753 -1.714355 -5.846142 0.463916 0.094879 -5.846150 0.463907 0.094873 -0.000001 0.000003 0.000001 -5.846147 0.463903 0.094876 -5.846124 0.463925 0.094874 0.000001 -0.000001 0.000000 -0.000001 0.000003 0.000000 3.677176 6.194745 24.143602 -59.663348 -29.699292 18.551115 331.726387 -50.304791 364.575663 9.712915 12.043604 4.406375 -18.855666 8.933415 3.057170 -10.184098 7.391066 11.736440 -0.000001 0.000001 -0.000003 -0.592705 -8.809715 -64.466877 -7.414302 -3.196008 -73.590275 0.000001 0.000001 -0.000000 -4.669429 -3.546363 -64.557507 -4.343528 -4.390796 -63.402235 0.000001 0.000001 -0.000000 -8.499388 6.196383 -65.422270 -0.143904 -6.140982 -71.299184 -0.000001 0.000003 0.000001 -11.696387 6.569877 -64.444590 0.747952 -7.748589 -64.679760 0.000000 0.000000 -0.000000 -0.000002 -0.000000 0.000000 -0.000002 -0.000000 0.000000 -0.000002 -0.000000 0.000000 0.000001 -0.000003 0.000001 0.000001 -0.000003 0.000000 0.000001 -0.000003 0.000001 0.000001 -0.000003 0.000001 -5.618866 -8.488122 -29.945253 -79.202450 30.402101 25.861297 -28.766940 45.497338 -9.943797 18.101897 -7.770094 -17.702085 -9.927560 -3.135352 -3.423722 9.147239 -6.167982 1.841533 0.000000 -0.000001 0.000001 -5.800738 7.899891 47.461120 -1.705270 0.304402 43.209829 0.000001 -0.000000 -0.000001 -3.405853 2.123225 34.452400 -0.819720 0.602204 26.448279 -0.000000 -0.000001 -0.000003 -6.121040 -2.660811 25.197519 0.241173 1.204272 20.283565 0.000000 -0.000001 -0.000001 -8.974034 -11.015644 18.858280 0.726528 6.448866 30.513870 -0.000000 -0.000000 0.000002 0.000000 -0.000000 -0.000000 0.000000 -0.000001 -0.000000 0.000000 -0.000000 0.000000 0.000002 0.000002 -0.000002 0.000002 0.000003 -0.000001 0.000002 0.000002 -0.000002 0.000003 0.000003 -0.000001 -0.000000 -0.000000 0.000000 -0.000000 -0.000000 0.000000 -0.000000 -0.000000 0.000000 -0.000000 -0.000000 0.000000 -0.000000 -0.000000 0.000000 -0.000000 -0.000000 0.000000 -0.000000 -0.000000 0.000000 -0.000000 0.000001 -0.000000 0.000000 -0.000002 0.000000 
-23.674812 129.200851 36.603260 1.982017 -19.345186 2.004196 -0.000000 -0.000002 -0.000000 -30.477977 8.881273 4.647677 39.469846 7.849815 4.015463 31.919564 -0.470053 -2.691489 0.000002 -0.000000 -0.000000 0.000000 -0.000000 -0.000001 -6.161878 -7.012219 -5.266463 16.159329 -22.009308 3.378009 40.499224 -3.265480 -3.227086 0.000001 0.000000 -0.000000 -0.000000 -0.000001 -0.000001 -1.424078 -0.101585 -0.871765 -2.849546 -0.229106 -1.624431 -2.849545 -0.229103 -1.624431 -5.483484 0.394935 -0.159990 -5.483486 0.394944 -0.159987 0.000001 -0.000001 0.000001 -5.483411 0.394943 -0.159986 -5.483452 0.394941 -0.159991 -0.000001 -0.000000 0.000000 0.000001 -0.000001 0.000001 4.781806 6.071383 25.311127 -58.312767 -25.193206 16.875552 334.030101 -55.829587 367.584443 10.718706 15.468676 -3.727588 -21.309480 8.848118 3.603925 -11.046013 7.810735 12.734314 0.000002 -0.000003 -0.000005 -0.668630 -9.385950 -69.496990 -8.126672 -3.034136 -78.334429 0.000001 0.000001 -0.000000 -5.910800 -3.911911 -68.776139 -4.727744 -4.456443 -66.846454 0.000001 0.000001 -0.000005 -9.746239 6.167369 -68.259661 -0.270681 -6.498683 -74.555790 -0.000003 -0.000002 -0.000002 -13.460170 6.392980 -66.874532 0.796649 -7.975053 -66.777120 -0.000002 -0.000003 -0.000000 0.000001 -0.000001 -0.000000 0.000001 -0.000001 -0.000000 0.000001 -0.000001 -0.000000 0.000001 0.000002 -0.000001 0.000001 0.000001 -0.000000 0.000001 0.000002 -0.000001 0.000001 0.000001 0.000000 -3.148150 -6.622060 -28.188295 -74.921165 31.517252 20.078724 -28.646428 45.441095 -7.798834 14.499161 -7.568621 -15.891494 -11.314164 -0.640395 -7.794860 7.524568 -9.236268 1.695815 0.000002 0.000001 -0.000000 -6.559486 7.393448 54.528866 -2.449473 0.693829 50.819770 -0.000000 0.000001 -0.000000 -5.103895 3.187948 44.972844 -1.503195 1.527333 37.885683 -0.000000 0.000001 0.000003 -7.748203 -2.737576 35.791735 0.248009 1.908896 31.704949 0.000000 0.000001 0.000001 -9.849995 -10.151365 30.707246 1.148598 7.284876 39.051818 0.000001 0.000001 0.000003 -0.000000 0.000000 0.000000 -0.000000 0.000000 -0.000000 -0.000000 0.000000 0.000000 0.000002 0.000002 -0.000000 0.000002 0.000003 -0.000001 0.000002 0.000002 -0.000000 0.000002 0.000003 0.000001 -0.000000 0.000000 -0.000000 -0.000000 0.000000 -0.000000 -0.000000 0.000000 -0.000000 -0.000000 0.000000 -0.000000 -0.000000 0.000000 -0.000000 -0.000000 0.000000 -0.000000 -0.000000 0.000000 -0.000000 -0.000000 0.000002 -0.000000 -0.000000 -0.000002 -0.000000 
-23.783888 127.825188 37.299217 1.646855 -18.551950 1.682703 -0.000000 -0.000001 -0.000000 -31.366517 8.418307 4.528516 39.928524 9.923210 3.325367 35.390861 -0.164158 -0.667393 0.000001 0.000001 0.000000 0.000000 -0.000000 -0.000000 -8.047512 -6.920529 -5.682732 17.230049 -20.694041 3.199680 43.470722 -2.913107 -4.021778 0.000002 0.000001 -0.000002 -0.000001 0.000002 -0.000001 -1.509341 -0.134231 -0.796276 -3.020491 -0.300869 -1.519637 -3.020490 -0.300874 -1.519637 -5.209424 0.329002 -0.448322 -5.209417 0.329018 -0.448316 0.000001 -0.000003 -0.000000 -5.209428 0.329007 -0.448321 -5.209417 0.329023 -0.448319 0.000001 0.000001 -0.000000 0.000001 -0.000003 -0.000001 5.846714 6.266297 26.599543 -57.037192 -19.937329 14.143170 336.297450 -62.699511 371.221765 12.075432 18.775977 -12.001235 -22.924208 8.761539 3.939448 -11.613934 8.069312 13.395148 0.000001 0.000002 -0.000001 -0.755058 -9.793362 -72.801675 -8.582114 -2.886299 -81.445232 0.000002 -0.000002 -0.000001 -6.750423 -4.067580 -71.547891 -4.980442 -4.484674 -69.106529 -0.000001 -0.000000 0.000001 -10.571537 6.213367 -70.118551 -0.370431 -6.734668 -76.693995 0.000003 -0.000001 -0.000000 -14.634859 6.353588 -68.460571 0.821180 -8.127469 -68.153909 0.000002 -0.000004 0.000003 0.000000 0.000000 0.000000 0.000000 0.000000 0.000000 0.000000 -0.000000 0.000000 -0.000001 -0.000004 0.000001 -0.000001 -0.000005 0.000002 -0.000001 -0.000004 0.000001 -0.000003 -0.000005 0.000002 -2.023505 -4.492273 -27.139989 -68.184303 31.329429 12.866667 -29.783023 45.104066 -2.566839 9.883237 -7.225269 -16.008772 -12.809660 2.188551 -12.808831 5.561960 -12.734975 1.298098 0.000003 -0.000001 -0.000000 -7.288525 6.738063 62.692353 -3.350642 0.967312 59.638855 -0.000001 0.000000 0.000002 -7.419795 3.777890 57.205542 -2.526055 2.313669 51.151003 0.000001 -0.000000 -0.000000 -9.662697 -3.338275 48.032684 0.154367 2.763925 44.927144 -0.000000 -0.000001 0.000001 -11.600130 -9.546219 44.232196 1.459217 8.447056 48.947294 0.000000 -0.000002 0.000001 0.000000 0.000001 -0.000000 0.000000 0.000001 0.000000 0.000000 0.000001 -0.000000 -0.000001 0.000003 -0.000003 -0.000001 0.000004 -0.000003 -0.000001 0.000003 -0.000003 -0.000001 0.000004 -0.000002 -0.000000 -0.000003 -0.000000 -0.000000 -0.000003 -0.000000 -0.000000 -0.000003 -0.000000 -0.000000 -0.000003 -0.000000 -0.000000 -0.000003 -0.000000 -0.000000 -0.000003 -0.000000 -0.000000 -0.000003 -0.000000 -0.000000 -0.000000 -0.000000 -0.000000 -0.000001 -0.000000 
-23.889154 126.356094 37.996712 1.244089 -17.613680 1.344871 0.000000 0.000001 -0.000000 -32.046879 8.351338 4.412599 40.324884 11.540284 2.919294 38.396287 0.425118 1.324808 -0.000003 0.000001 0.000001 -0.000000 0.000000 0.000001 -9.703809 -6.744434 -5.619101 18.164263 -19.757144 1.945238 46.245175 -1.821707 -3.809845 0.000003 -0.000000 0.000001 0.000001 -0.000001 0.000000 -1.645555 -0.118993 -0.671007 -3.292605 -0.278829 -1.303055 -3.292605 -0.278820 -1.303055 -4.972349 0.277719 -0.632051 -4.972341 0.277715 -0.632058 -0.000000 -0.000000 0.000001 -4.972356 0.277720 -0.632050 -4.972224 0.277731 -0.632058 -0.000002 0.000000 -0.000000 -0.000000 -0.000000 0.000001 6.717990 6.329316 27.810085 -55.092593 -13.574171 10.508926 339.071901 -71.280134 375.947218 13.106021 22.007775 -18.493760 -23.505065 8.724738 4.055233 -11.818405 8.158921 13.633683 0.000001 -0.000000 -0.000003 -0.793886 -9.944893 -73.989862 -8.742879 -2.825311 -82.562295 -0.000000 -0.000002 -0.000001 -7.055836 -4.106901 -72.544013 -5.071190 -4.491942 -69.918434 -0.000001 0.000001 -0.000002 -10.868873 6.242516 -70.785615 -0.409520 -6.819529 -77.462459 0.000000 0.000001 0.000003 -15.058812 6.352199 -69.028521 0.828515 -8.182953 -68.648674 0.000001 0.000000 0.000000 0.000000 0.000001 -0.000000 0.000000 0.000001 -0.000000 0.000000 0.000001 0.000000 0.000001 -0.000002 0.000001 0.000001 -0.000003 0.000000 0.000001 -0.000002 0.000001 0.000001 -0.000003 -0.000000 -0.962622 -3.617258 -26.818758 -63.904268 30.681128 10.710913 -28.415943 46.120388 -0.431034 6.073469 -6.296533 -14.958002 -14.232509 4.972254 -17.779601 3.459901 -16.185141 0.633623 0.000001 0.000000 -0.000000 -7.858087 6.046800 70.836165 -4.257021 1.049414 68.456725 -0.000002 0.000002 0.000006 -9.917067 3.592953 69.474779 -3.708024 2.725260 64.428799 0.000001 -0.000001 -0.000001 -11.472224 -4.499105 60.238614 -0.069191 3.650708 58.140489 -0.000001 0.000002 -0.000001 -13.977434 -9.646203 57.544460 1.523889 9.778977 58.870753 -0.000001 -0.000002 -0.000001 0.000000 -0.000000 -0.000000 -0.000000 -0.000001 -0.000000 -0.000000 -0.000000 0.000000 -0.000003 0.000001 0.000001 -0.000004 0.000002 0.000001 -0.000003 0.000001 0.000001 -0.000004 0.000002 -0.000001 0.000000 0.000001 0.000000 0.000000 0.000001 0.000000 0.000000 0.000001 0.000000 0.000000 0.000001 0.000000 0.000000 0.000001 0.000000 0.000000 0.000001 0.000000 0.000000 0.000001 0.000000 0.000000 0.000000 0.000000 0.000000 0.000001 -0.000000 
